<?xml version="1.0" standalone="no"?>
<!DOCTYPE svg PUBLIC "-//W3C//DTD SVG 20010904//EN"
 "http://www.w3.org/TR/2001/REC-SVG-20010904/DTD/svg10.dtd">
<svg version="1.0" xmlns="http://www.w3.org/2000/svg"
 width="256.000000pt" height="256.000000pt" viewBox="0 0 256.000000 256.000000"
 preserveAspectRatio="xMidYMid meet">

<g transform="translate(0.000000,256.000000) scale(0.100000,-0.100000)"
fill="#000000" stroke="none">
<path d="M90 1641 c-6 -13 -10 -151 -10 -380 0 -314 2 -362 16 -375 23 -24
315 -23 339 0 14 15 16 50 13 308 -3 276 -4 293 -25 331 -51 96 -122 135 -242
135 -69 0 -82 -3 -91 -19z"/>
<path d="M655 1641 c-52 -23 -103 -74 -126 -126 -17 -36 -19 -71 -19 -332 0
-279 1 -293 19 -303 26 -13 296 -13 322 0 18 10 19 25 19 383 0 277 -3 376
-12 385 -19 19 -156 15 -203 -7z"/>
<path d="M1116 1645 c-56 -20 -107 -65 -136 -121 -24 -46 -25 -57 -28 -255 -2
-132 1 -222 8 -248 17 -64 72 -118 137 -137 68 -20 189 -16 203 6 15 24 13
743 -2 758 -16 16 -133 15 -182 -3z"/>
</g>
</svg>
